<svg width="24" height="24" viewBox="0 0 24 24" fill="none" xmlns="http://www.w3.org/2000/svg">
<path d="M5.25 10.5C7.0625 14.0625 9.9375 16.9375 13.5 18.75L16.25 16C16.5625 15.625 17.0625 15.5625 17.5 15.6875C18.875 16.125 20.375 16.375 21.9375 16.375C22.625 16.375 23.1875 16.9375 23.1875 17.625V22C23.1875 22.6875 22.625 23.25 21.9375 23.25C10.25 23.25 0.75 13.75 0.75 2C0.75 1.3125 1.3125 0.75 2 0.75H6.375C7.0625 0.75 7.625 1.3125 7.625 2C7.625 3.5625 7.875 5.0625 8.3125 6.4375C8.4375 6.875 8.375 7.375 8 7.6875L5.25 10.5Z" fill="#CDBD9B"/>
</svg>
